<?xml version="1.0" encoding="UTF-8"?>
<svg width="128px" height="128px" viewBox="0 0 128 128" version="1.1" xmlns="http://www.w3.org/2000/svg" xmlns:xlink="http://www.w3.org/1999/xlink">
    <title>Artboard</title>
    <defs>
        <linearGradient x1="64.9438679%" y1="65.2628613%" x2="100%" y2="30.658616%" id="linearGradient-1">
            <stop stop-color="#FFB200" stop-opacity="0.05" offset="0%"></stop>
            <stop stop-color="#FFB200" stop-opacity="0.4" offset="100%"></stop>
        </linearGradient>
        <circle id="path-2" cx="29" cy="29" r="29"></circle>
        <filter x="-25.9%" y="-25.9%" width="151.7%" height="151.7%" filterUnits="objectBoundingBox" id="filter-3">
            <feOffset dx="0" dy="0" in="SourceAlpha" result="shadowOffsetOuter1"></feOffset>
            <feGaussianBlur stdDeviation="5" in="shadowOffsetOuter1" result="shadowBlurOuter1"></feGaussianBlur>
            <feColorMatrix values="0 0 0 0 0   0 0 0 0 0   0 0 0 0 0  0 0 0 0.2 0" type="matrix" in="shadowBlurOuter1"></feColorMatrix>
        </filter>
        <circle id="path-4" cx="29" cy="29" r="29"></circle>
        <filter x="-25.9%" y="-25.9%" width="151.7%" height="151.7%" filterUnits="objectBoundingBox" id="filter-5">
            <feOffset dx="0" dy="0" in="SourceAlpha" result="shadowOffsetOuter1"></feOffset>
            <feGaussianBlur stdDeviation="5" in="shadowOffsetOuter1" result="shadowBlurOuter1"></feGaussianBlur>
            <feColorMatrix values="0 0 0 0 0   0 0 0 0 0   0 0 0 0 0  0 0 0 0.2 0" type="matrix" in="shadowBlurOuter1"></feColorMatrix>
        </filter>
        <path d="M0,15.9890105 C0,24.820419 7.15924763,31.978744 15.989372,31.978744 C24.8198578,31.978744 31.978744,24.820419 31.978744,15.9890105 C31.978744,7.15868647 24.8198578,0 15.989372,0 C7.15924763,0 0,7.15868647 0,15.9890105" id="path-6"></path>
        <path d="M0,15.9890105 C0,24.820419 7.15924763,31.978744 15.989372,31.978744 C24.8198578,31.978744 31.978744,24.820419 31.978744,15.9890105 C31.9791055,7.15868647 24.8202193,0 15.9897335,0 C7.15924763,0 0,7.15868647 0,15.9890105" id="path-8"></path>
        <path d="M0,15.9890105 C0,24.820419 7.15924763,31.978744 15.989372,31.978744 C24.8198578,31.978744 31.978744,24.820419 31.978744,15.9890105 C31.978744,7.15868647 24.8198578,0 15.989372,0 C7.15924763,0 0,7.15868647 0,15.9890105" id="path-10"></path>
        <path d="M0,15.9890105 C0,24.820419 7.15924763,31.978744 15.989372,31.978744 C24.8198578,31.978744 31.978744,24.820419 31.978744,15.9890105 C31.9791055,7.15868647 24.8202193,0 15.9897335,0 C7.15924763,0 0,7.15868647 0,15.9890105" id="path-12"></path>
    </defs>
    <g id="Artboard" stroke="none" stroke-width="1" fill="none" fill-rule="evenodd">
        <g id="Group-2" transform="translate(-302.000000, -16.000000)">
            <g id="Group">
                <rect id="Rectangle" fill="#0A0F1D" x="0" y="0" width="470.999581" height="172"></rect>
                <path d="M470.999581,21.0912093 L470.999581,171.999908 L228.363433,171.999908 C248.599071,145.346562 274.768637,127.716284 306.872133,119.109074 C355.530945,106.063248 347.869381,79.8639017 392.101523,52.7444446 C421.074284,34.9807658 447.373637,24.4296874 470.999581,21.0912093 Z" id="Path" fill="url(#linearGradient-1)"></path>
                <g id="lines" opacity="0.12" transform="translate(252.291219, 30.624390)" fill="#FFFFFF">
                    <rect id="Rectangle" x="146.791926" y="18.0390244" width="1" height="122.917073"></rect>
                    <rect id="Rectangle" x="110.093944" y="46.9853659" width="1" height="93.9707317"></rect>
                    <rect id="Rectangle" x="73.3959629" y="81.3853659" width="1" height="59.5707317"></rect>
                    <rect id="Rectangle" x="21.8288576" y="101.490022" width="196.879504" height="1"></rect>
                    <rect id="Rectangle" x="116.280645" y="40.4538498" width="102.427716" height="1"></rect>
                </g>
                <path d="M471,20.7273271 L471,21.5751613 L470.898023,21.5899273 C447.703553,24.9744298 421.920324,35.2981307 393.551956,52.5659474 L392.673941,53.1021067 C382.995096,59.0313186 375.282326,65.2071958 368.374473,72.2190019 C365.856553,74.7748122 363.481632,77.3975092 360.905424,80.4278325 L359.978732,81.5252691 L358.793212,82.9538036 L352.977676,90.0428989 L352.390361,90.7507556 L351.793986,91.4638362 L351.197311,92.1710092 L350.599446,92.8727585 C345.359299,98.9918139 341.177972,103.02125 335.873086,106.809184 C328.468755,112.096218 319.505584,116.187 307.759273,119.379903 L307.261291,119.514281 C275.322882,128.069946 249.274771,145.562113 229.104892,171.999907 L228.050693,171.999907 L228.221411,171.774282 C248.533386,145.03132 274.81162,127.338258 307.043914,118.703867 C318.942043,115.516594 327.962022,111.426859 335.384992,106.126515 C341.303572,101.900375 345.81488,97.3621702 352.037456,89.8622688 L358.051438,82.5339184 L359.25842,81.0782296 L359.483456,80.8096776 L360.266324,79.8837311 C362.854702,76.83912 365.242793,74.201892 367.776197,71.6303639 C374.731118,64.5707817 382.497225,58.3521957 392.235166,52.3867825 C421.130749,34.6854932 447.384437,24.1306351 471,20.7273271 Z" id="Path" fill="#FFB200" fill-rule="nonzero"></path>
            </g>
            <g id="dots" transform="translate(343.568133, 49.745116)" fill="#101218" stroke="#FFB200">
                <ellipse id="Oval" stroke-width="2" cx="1.61936613" cy="48.3770866" rx="1.61936613" ry="1.61838461"></ellipse>
                <ellipse id="Oval" cx="51.1554144" cy="1.61838461" rx="1.61936613" ry="1.61838461"></ellipse>
            </g>
        </g>
        <g id="Group-2" transform="translate(12.000000, 12.000000)">
            <g id="Branding/Logo" fill="#FFB200">
                <path d="M14,0 C21.7319865,0 28,6.2680135 28,14 C28,21.7319865 21.7319865,28 14,28 C11.3285245,28 8.83181346,27.2517441 6.70801375,25.9533791 L9.546072,21 L14.6313725,21 C18.4973658,21 21.6313725,17.8659932 21.6313725,14 C21.6313725,10.1340068 18.4973658,7 14.6313725,7 L12.0784314,7 C11.2445897,7 10.5686275,7.67596224 10.5686275,8.50980392 C10.5686275,9.3436456 11.2445897,10.0196078 12.0784314,10.0196078 L14.6313725,10.0196078 C16.8296824,10.0196078 18.6117647,11.8016901 18.6117647,14 C18.6117647,16.1983099 16.8296824,17.9803922 14.6313725,17.9803922 L9.14117647,17.9803922 C8.43741014,17.9803922 7.84610828,18.4619098 7.67875875,19.113453 C7.66650611,19.1486145 7.6554542,19.1844842 7.64566231,19.2210281 L5.97099907,25.4703382 C2.3603873,22.9382987 0,18.7447983 0,14 C0,6.2680135 6.2680135,0 14,0 Z M14.6313725,12.0784314 L11.0352941,12.0784314 C9.97404107,12.0784314 9.11372549,12.938747 9.11372549,14 C9.11372549,15.061253 9.97404107,15.9215686 11.0352941,15.9215686 L14.6313725,15.9215686 C15.6926256,15.9215686 16.5529412,15.061253 16.5529412,14 C16.5529412,12.938747 15.6926256,12.0784314 14.6313725,12.0784314 Z" id="logo"></path>
            </g>
            <g id="Group-4" transform="translate(0.000000, 46.000000)">
                <g id="Oval">
                    <use fill="black" fill-opacity="1" filter="url(#filter-3)" xlink:href="#path-2"></use>
                    <use fill="#FFFFFF" fill-rule="evenodd" xlink:href="#path-2"></use>
                </g>
                <g id="Vendor/Mollie" transform="translate(14.000000, 19.375000)" fill="#000000" fill-rule="nonzero">
                    <path d="M30,8.6317455 L30,19.299265 L25.9430273,19.299265 L25.9430273,8.48883535 C25.9270312,6.05936269 23.9329102,4.06752675 21.4985156,4.04602285 C19.0105664,4.02422597 16.9750781,6.12246816 16.9750781,8.610183 L16.9750781,19.299265 L12.9181055,19.299265 L12.9181055,8.51760488 C12.9022852,6.07641347 10.9168945,4.08270253 8.48355469,4.05985097 C5.99009766,4.03641347 3.95015625,6.13869863 3.95015625,8.63215566 L3.95015625,19.299265 L0,19.299265 L0,8.48883535 C0,3.80051503 3.79863281,0.00756581397 8.48847656,0.00756581397 C11.0881641,0.00756581397 13.4144531,1.18500722 14.9730469,3.02537831 C14.9708789,3.02748769 14.9751563,3.02748769 14.9730469,3.02537831 C16.5808594,1.12272206 19.0293164,-0.0736451235 21.7314258,0.00352284522 C26.3561719,0.135768939 30,4.00571035 30,8.6317455 Z" id="Path"></path>
                </g>
                <g id="Group-3" transform="translate(46.000000, 0.000000)">
                    <g id="Oval">
                        <use fill="black" fill-opacity="1" filter="url(#filter-5)" xlink:href="#path-4"></use>
                        <use fill="#FFFFFF" fill-rule="evenodd" xlink:href="#path-4"></use>
                    </g>
                    <g id="Vendor/Mollie" transform="translate(12.533333, 12.533333)">
                        <g id="Group" transform="translate(0.000000, 0.000000)">
                            <g id="Clipped" transform="translate(0.318196, 0.954589)">
                                <mask id="mask-7" fill="white">
                                    <use xlink:href="#path-6"></use>
                                </mask>
                                <g id="a"></g>
                                <path d="M31.978744,15.989372 C31.978744,24.820419 24.8198578,31.9791055 15.989372,31.9791055 C7.15852462,31.9791055 0.000361505132,24.820419 0.000361505132,15.989372 C0.000361505132,7.15832496 7.15888613,-0.000361513305 15.989372,-0.000361513305 C24.8198578,-0.000361513305 31.978744,7.15832496 31.978744,15.989372" id="Path" fill="#3AD0F6" fill-rule="nonzero" mask="url(#mask-7)"></path>
                            </g>
                            <g transform="translate(0.318196, 0.954589)" id="Clipped">
                                <mask id="mask-9" fill="white">
                                    <use xlink:href="#path-8"></use>
                                </mask>
                                <g id="c"></g>
                                <path d="M32.4523157,22.60615 C25.0996628,19.3026414 17.5344449,10.0153646 16.8949423,9.58914042 C16.2558013,9.16255472 15.4030107,9.69578685 15.4030107,9.69578685 C14.8708751,8.84261545 14.0180845,9.80207176 14.0180845,9.80207176 C10.0755095,16.5150123 -0.473210218,22.9253663 -0.473210218,22.9253663 C-0.473210218,22.9253663 4.5932842,32.2419256 16.3031584,32.2419256 C28.2067994,32.2419256 32.4523157,22.6057885 32.4523157,22.6057885" id="Path" fill="#1D5992" fill-rule="nonzero" mask="url(#mask-9)"></path>
                            </g>
                            <g id="Clipped" transform="translate(0.318196, 0.954589)">
                                <mask id="mask-11" fill="white">
                                    <use xlink:href="#path-10"></use>
                                </mask>
                                <g id="e"></g>
                                <path d="M8.79686588,15.556279 C8.79686588,15.556279 10.9279386,14.5971842 10.5017241,16.1954346 C10.075148,17.7940464 8.37065133,20.1380987 8.90350989,20.2443836 C9.43636846,20.35103 10.9279386,18.8597876 11.3545147,19.072719 C11.7800062,19.2856503 12.0995768,19.1790039 11.8866502,19.9248058 C11.6740852,20.6706078 11.4611587,21.2038399 11.8866502,21.2038399 C12.3132263,21.2038399 12.6327968,20.2443836 13.1656554,19.2856503 C13.698514,18.326917 14.5505816,18.7527797 14.8701521,19.0723574 C15.1900841,19.3922967 16.1487957,21.2038399 16.8953038,20.9901855 C17.6410889,20.7772542 18.066942,19.8185209 17.7473714,17.6874 C17.4278009,15.556279 17.9606595,14.916762 17.9606595,14.916762 C17.9606595,14.916762 18.5998005,14.5971842 19.7721617,16.0887881 C20.9441613,17.580392 23.0755956,19.8185209 23.3944431,19.7118745 C23.7143751,19.6052281 21.9032344,17.2608143 22.3290875,17.0475214 C22.7556635,16.8345901 24.4605217,17.3674607 25.3129508,18.1139857 C25.3129508,18.1139857 25.604324,19.3351776 25.604324,18.1631515 L16.8953038,9.58914042 L15.4030107,9.69578685 L14.0180845,9.80171025 C14.0180845,9.80171025 10.6080066,14.9171235 8.79686588,15.556279" id="Path" fill="#FFFFFE" fill-rule="nonzero" mask="url(#mask-11)"></path>
                            </g>
                            <g transform="translate(0.318196, 0.954589)" id="Clipped">
                                <mask id="mask-13" fill="white">
                                    <use xlink:href="#path-12"></use>
                                </mask>
                                <g id="g"></g>
                                <path d="M14.8679831,8.84984571 L14.9735426,8.85671447 C15.1600792,8.87768224 15.3321557,8.94673128 15.4843493,9.06024646 L15.5233919,9.09205963 L15.6282284,9.05373922 C15.8917656,8.96263787 16.1614484,8.91636416 16.4314928,8.93443983 L16.5666957,8.94890036 C16.7818186,8.98005478 16.9873056,9.05871956 17.1682402,9.17918434 L18.1269518,10.2264884 C19.5548971,11.7683426 22.2640166,14.6492422 24.0711807,16.3364248 L24.1832473,16.4405406 C26.9292403,18.9819791 29.5573826,20.9493345 32.0130869,22.172334 C32.1566045,22.2439137 32.299399,22.3129627 32.4414705,22.3791197 L32.6540355,22.4763667 L32.2502343,23.3747273 C32.0227871,23.2723441 31.7974041,23.1654354 31.5742197,23.054065 C29.1188769,21.8310655 26.5305001,19.9168525 23.8380099,17.4607311 L23.5141013,17.1632057 C20.9318701,14.7736027 16.6010387,10.0385015 16.6180294,9.99728895 C16.5589036,9.95781202 16.4914943,9.93245566 16.4210091,9.92317872 C16.2612238,9.89931884 16.064565,9.93583168 15.8642912,10.0164492 C15.8037409,10.0404326 15.7447065,10.0680793 15.6875152,10.0992357 L15.2464789,10.3743473 L14.9851107,9.95643794 C14.9261854,9.86172146 14.8925654,9.8385846 14.8640065,9.83533098 C14.8083347,9.82918526 14.6962681,9.87401291 14.5682953,9.96872939 C14.5169616,10.0063268 14.4724964,10.0446472 14.4381535,10.0764604 L14.4117636,10.1017663 L14.2888518,10.3078289 C12.926339,12.5347508 10.810811,14.8444593 8.1360345,17.1780277 L7.82514008,17.4473551 C6.06569461,18.9592038 4.18261438,20.3879044 2.29989565,21.6900753 C1.82921597,22.0154373 1.38239562,22.3165779 0.964857197,22.5909664 L0.338368803,22.9973074 L-0.217626089,23.3461677 L-0.728794346,22.5045648 L-0.321378062,22.2496979 C-0.237870377,22.1969169 -0.148578609,22.1397978 -0.0538642646,22.0790636 L0.424407025,21.7678007 C0.866230548,21.4769671 1.30464561,21.1809881 1.73956269,20.879924 C3.59589155,19.5961902 5.4522204,18.1877344 7.18310697,16.7004687 C9.932715,14.3376177 12.0941542,12.0065799 13.4465449,9.7977336 L13.593316,9.55262758 L13.6500723,9.47490222 C13.7220118,9.39392324 13.8355244,9.28546925 13.98338,9.17629223 C14.2610159,8.97131418 14.5541966,8.84442301 14.8679831,8.84984571 L14.8679831,8.84984571 Z" id="Path" fill="#1A1919" fill-rule="nonzero" mask="url(#mask-13)"></path>
                            </g>
                            <path d="M16.4661249,0 C7.37237424,0 0,7.37229338 0,16.4666667 C0,25.5610399 7.37201306,32.9333333 16.4661249,32.9333333 C25.5605979,32.9333333 32.9333333,25.5610399 32.9333333,16.4666667 C32.9333333,7.37229338 25.5605979,0 16.4661249,0 Z M16.4661249,0.98383927 C25.0173856,0.98383927 31.9494833,7.91586097 31.9494833,16.4666667 C31.9494833,25.0178335 25.0173856,31.9494941 16.4664861,31.9494941 C7.9155866,31.9494941 0.98385006,25.0178335 0.98385006,16.4666667 C0.98385006,7.9154998 7.9155866,0.98383927 16.4664861,0.98383927 L16.4661249,0.98383927 Z" id="Shape" fill="#1A1919" fill-rule="nonzero"></path>
                        </g>
                    </g>
                </g>
            </g>
        </g>
    </g>
</svg>