<svg xmlns="http://www.w3.org/2000/svg" xmlns:xlink="http://www.w3.org/1999/xlink" width="128" height="128"><defs><path id="f" d="M0 15.989c0 8.831 7.16 15.99 15.99 15.99s15.989-7.159 15.989-15.99C31.979 7.159 24.819 0 15.989 0S0 7.159 0 15.989"/><path id="h" d="M0 15.989c0 8.831 7.16 15.99 15.99 15.99s15.989-7.159 15.989-15.99C31.979 7.159 24.82 0 15.989 0 7.16 0 0 7.159 0 15.989"/><path id="j" d="M0 15.989c0 8.831 7.16 15.99 15.99 15.99s15.989-7.159 15.989-15.99C31.979 7.159 24.819 0 15.989 0S0 7.159 0 15.989"/><path id="l" d="M0 15.989c0 8.831 7.16 15.99 15.99 15.99s15.989-7.159 15.989-15.99C31.979 7.159 24.82 0 15.989 0 7.16 0 0 7.159 0 15.989"/><filter id="b" width="151.7%" height="151.7%" x="-25.9%" y="-25.9%" filterUnits="objectBoundingBox"><feOffset in="SourceAlpha" result="shadowOffsetOuter1"/><feGaussianBlur in="shadowOffsetOuter1" result="shadowBlurOuter1" stdDeviation="5"/><feColorMatrix in="shadowBlurOuter1" values="0 0 0 0 0 0 0 0 0 0 0 0 0 0 0 0 0 0 0.2 0"/></filter><filter id="d" width="151.7%" height="151.7%" x="-25.9%" y="-25.9%" filterUnits="objectBoundingBox"><feOffset in="SourceAlpha" result="shadowOffsetOuter1"/><feGaussianBlur in="shadowOffsetOuter1" result="shadowBlurOuter1" stdDeviation="5"/><feColorMatrix in="shadowBlurOuter1" values="0 0 0 0 0 0 0 0 0 0 0 0 0 0 0 0 0 0 0.2 0"/></filter><circle id="c" cx="29" cy="29" r="29"/><circle id="e" cx="29" cy="29" r="29"/><linearGradient id="a" x1="64.944%" x2="100%" y1="65.263%" y2="30.659%"><stop offset="0%" stop-color="#FFB200" stop-opacity=".05"/><stop offset="100%" stop-color="#FFB200" stop-opacity=".4"/></linearGradient></defs><g fill="none" fill-rule="evenodd"><path fill="#0A0F1D" d="M-302-16h471v172h-471z"/><path fill="url(#a)" d="M471 21.091V172H228.363c20.236-26.653 46.406-44.284 78.51-52.89 48.658-13.047 40.996-39.246 85.229-66.366C421.074 34.981 447.374 24.43 471 21.091Z" transform="translate(-302 -16)"/><g fill="#FFF" opacity=".12"><path d="M97.083 32.663h1V155.58h-1zM60.385 61.61h1v93.97h-1zM23.687 96.01h1v59.57h-1z"/><path d="M-27.88 116.114H169v1H-27.88zM66.572 55.078H169v1H66.572z"/></g><path fill="#FFB200" fill-rule="nonzero" d="M169 4.727v.848l-.102.015c-23.194 3.384-48.978 13.708-77.346 30.976l-.878.536c-9.679 5.93-17.392 12.105-24.3 19.117-2.517 2.556-4.892 5.179-7.469 8.209l-.926 1.097-1.186 1.429-5.815 7.089-.588.708-.596.713-.597.707-.598.702c-5.24 6.119-9.421 10.148-14.726 13.936-7.404 5.287-16.367 9.378-28.114 12.57l-.498.135C-26.677 112.07-52.725 129.562-72.895 156h-1.054l.17-.226c20.312-26.743 46.59-44.436 78.823-53.07 11.898-3.187 20.918-7.277 28.341-12.577 5.919-4.227 10.43-8.765 16.652-16.265l6.014-7.328 1.207-1.456.225-.268.783-.926c2.589-3.045 4.977-5.682 7.51-8.254 6.955-7.06 14.721-13.278 24.46-19.243C119.13 18.685 145.383 8.13 169 4.727Z"/><g fill="#101218" stroke="#FFB200" transform="translate(41.568 33.745)"><ellipse cx="1.619" cy="48.377" stroke-width="2" rx="1.619" ry="1.618"/><ellipse cx="51.155" cy="1.618" rx="1.619" ry="1.618"/></g><path fill="#FFB200" d="M26 12c7.732 0 14 6.268 14 14s-6.268 14-14 14c-2.671 0-5.168-.748-7.292-2.047L21.546 33h5.085a7 7 0 1 0 0-14h-2.553a1.51 1.51 0 1 0 0 3.02h2.553a3.98 3.98 0 0 1 0 7.96h-5.49a1.51 1.51 0 0 0-1.462 1.133 1.531 1.531 0 0 0-.033.108l-1.675 6.25A13.984 13.984 0 0 1 12 26c0-7.732 6.268-14 14-14Zm.631 12.078h-3.596a1.922 1.922 0 0 0 0 3.844h3.596a1.922 1.922 0 1 0 0-3.844Z"/><g transform="translate(12 58)"><use xlink:href="#c" fill="#000" filter="url(#b)"/><use xlink:href="#c" fill="#FFF"/></g><path fill="#000" fill-rule="nonzero" d="M56 86.007v10.667h-4.057v-10.81c-.016-2.43-2.01-4.421-4.444-4.443-2.488-.022-4.524 2.076-4.524 4.564v10.69h-4.057V85.892c-.016-2.442-2.001-4.435-4.434-4.458-2.494-.024-4.534 2.079-4.534 4.572v10.667H26v-10.81c0-4.688 3.799-8.481 8.488-8.481 2.6 0 4.926 1.177 6.485 3.017-.002.002.002.002 0 0a8.525 8.525 0 0 1 6.758-3.021C52.356 77.51 56 81.38 56 86.007Z"/><g transform="translate(58 58)"><use xlink:href="#e" fill="#000" filter="url(#d)"/><use xlink:href="#e" fill="#FFF"/></g><g transform="translate(70.852 71.488)"><mask id="g" fill="#fff"><use xlink:href="#f"/></mask><path fill="#3AD0F6" fill-rule="nonzero" d="M31.979 15.99c0 8.83-7.16 15.99-15.99 15.99S0 24.82 0 15.99C0 7.157 7.16 0 15.99 0c8.83 0 15.989 7.158 15.989 15.99" mask="url(#g)"/></g><g transform="translate(70.852 71.488)"><mask id="i" fill="#fff"><use xlink:href="#h"/></mask><path fill="#1D5992" fill-rule="nonzero" d="M32.452 22.606C25.1 19.303 17.534 10.016 16.895 9.59c-.64-.426-1.492.107-1.492.107-.532-.853-1.385.106-1.385.106C10.076 16.515-.473 22.925-.473 22.925s5.066 9.317 16.776 9.317c11.904 0 16.15-9.636 16.15-9.636" mask="url(#i)"/></g><g transform="translate(70.852 71.488)"><mask id="k" fill="#fff"><use xlink:href="#j"/></mask><path fill="#FFFFFE" fill-rule="nonzero" d="M8.797 15.556s2.13-.959 1.705.64c-.427 1.598-2.131 3.942-1.598 4.048.532.107 2.024-1.384 2.45-1.171.426.213.746.106.533.852-.213.746-.426 1.279 0 1.279s.746-.96 1.279-1.918c.533-.96 1.385-.533 1.704-.214.32.32 1.279 2.132 2.025 1.918.746-.213 1.172-1.171.852-3.303-.32-2.13.214-2.77.214-2.77s.639-.32 1.811 1.172c1.172 1.491 3.304 3.73 3.622 3.623.32-.107-1.49-2.451-1.065-2.664.427-.213 2.132.32 2.984 1.066 0 0 .291 1.221.291.05l-8.709-8.575-1.492.107-1.385.106s-3.41 5.115-5.221 5.754" mask="url(#k)"/></g><g transform="translate(70.852 71.488)"><mask id="m" fill="#fff"><use xlink:href="#l"/></mask><path fill="#1A1919" fill-rule="nonzero" d="m14.868 8.85.106.007c.186.02.358.09.51.203l.04.032.104-.038c.264-.091.533-.138.803-.12l.136.015c.215.031.42.11.601.23l.959 1.047c1.428 1.542 4.137 4.423 5.944 6.11l.112.105c2.746 2.541 5.374 4.508 7.83 5.731.144.072.286.141.428.207l.213.097-.404.899c-.227-.103-.453-.21-.676-.32-2.455-1.224-5.043-3.138-7.736-5.594l-.324-.298c-2.582-2.39-6.913-7.124-6.896-7.166a.464.464 0 0 0-.197-.074c-.16-.024-.356.013-.557.093-.06.024-.12.052-.176.083l-.442.275-.26-.418c-.06-.094-.093-.117-.122-.12-.056-.007-.168.038-.296.133a1.484 1.484 0 0 0-.13.107l-.026.026-.123.206c-1.363 2.227-3.478 4.536-6.153 6.87l-.31.27A67.06 67.06 0 0 1 2.3 21.69c-.47.325-.918.627-1.335.901l-.627.406-.556.35-.51-.842.407-.255.267-.17.478-.312a68 68 0 0 0 1.316-.888 66.058 66.058 0 0 0 5.443-4.18c2.75-2.362 4.911-4.693 6.264-6.902l.146-.245.057-.078a2.22 2.22 0 0 1 .333-.299c.278-.205.571-.332.885-.326Z" mask="url(#m)"/></g><path fill="#1A1919" fill-rule="nonzero" d="M87 70.533c-9.094 0-16.467 7.373-16.467 16.467 0 9.094 7.372 16.467 16.466 16.467 9.095 0 16.468-7.373 16.468-16.467 0-9.094-7.373-16.467-16.468-16.467Zm0 .984c8.55 0 15.483 6.932 15.483 15.483S95.55 102.483 87 102.483 71.517 95.55 71.517 87 78.45 71.517 87 71.517Z"/></g></svg>